<?xml version="1.0" encoding="utf-8"?>
<!-- Generator: Adobe Illustrator 16.0.0, SVG Export Plug-In . SVG Version: 6.00 Build 0)  -->
<!DOCTYPE svg PUBLIC "-//W3C//DTD SVG 1.1//EN" "http://www.w3.org/Graphics/SVG/1.1/DTD/svg11.dtd">
<svg version="1.1" id="Layer_1" xmlns="http://www.w3.org/2000/svg" xmlns:xlink="http://www.w3.org/1999/xlink" x="0px" y="0px"
	 width="261.472px" height="145px" viewBox="0 0 261.472 145" enable-background="new 0 0 261.472 145" xml:space="preserve">
<g>
	<path fill="#9AB6C0" d="M31.528,35.082c0,5.527-3.554,10.726-15.467,10.726c-11.914,0-15.467-5.199-15.467-10.726V10.728
		C0.594,5.201,4.147,0,16.061,0c11.913,0,15.467,5.201,15.467,10.728v3.159c0,1.185-0.396,1.646-1.516,1.646h-5.462
		c-1.183,0-1.643-0.461-1.643-1.646v-1.579c0-3.291-2.306-4.936-6.714-4.936c-4.411,0-6.648,1.645-6.648,4.936V33.5
		c0,3.293,2.238,4.939,6.648,4.939c4.409,0,6.714-1.646,6.714-4.939V31c0-1.184,0.46-1.644,1.643-1.644h5.462
		c1.121,0,1.516,0.46,1.516,1.644V35.082z"/>
	<path fill="#9AB6C0" d="M35.473,10.728C35.473,5.201,39.554,0,51.467,0s15.994,5.201,15.994,10.728v24.354
		c0,5.527-4.081,10.726-15.994,10.726s-15.994-5.199-15.994-10.726V10.728z M58.576,12.308c0-3.291-2.699-4.936-7.109-4.936
		c-4.409,0-7.043,1.645-7.043,4.936V33.5c0,3.293,2.634,4.939,7.043,4.939c4.41,0,7.109-1.646,7.109-4.939V12.308z"/>
	<path fill="#9AB6C0" d="M80.359,37.912h14.676c1.119,0,1.646,0.396,1.646,1.579v4.147c0,1.185-0.527,1.646-1.646,1.646H72.854
		c-0.987,0-1.382-0.594-1.382-1.712V2.237c0-1.185,0.395-1.71,1.579-1.71h5.727c1.184,0,1.581,0.526,1.581,1.71V37.912z"/>
	<path fill="#9AB6C0" d="M108.224,33.5c0,3.293,2.632,4.939,7.042,4.939c4.408,0,7.174-1.646,7.174-4.939V2.237
		c0-1.185,0.396-1.71,1.579-1.71h5.727c1.184,0,1.515,0.526,1.515,1.71v32.845c0,5.527-4.083,10.726-15.995,10.726
		c-11.915,0-15.994-5.199-15.994-10.726V2.237c0-1.185,0.46-1.71,1.645-1.71h5.726c1.121,0,1.581,0.526,1.581,1.71V33.5z"/>
	<path fill="#9AB6C0" d="M175.222,43.638c0,1.117-0.394,1.646-1.582,1.646h-5.46c-1.185,0-1.578-0.529-1.578-1.646V18.629
		c-0.067,0.195-1.253,4.209-1.914,5.986l-4.998,12.245c-0.46,1.052-1.052,1.647-2.174,1.647h-4.669
		c-1.123,0-1.715-0.661-2.109-1.647l-5.594-13.23c-0.658-1.382-1.45-4.411-1.515-4.871v24.879c0,1.117-0.395,1.646-1.579,1.646
		h-5.199c-1.186,0-1.582-0.529-1.582-1.646V2.172c0-1.12,0.396-1.646,1.582-1.646h5.199c0.856,0,1.185,0.329,1.449,0.921
		l10.071,22.971c0.788,1.777,1.642,4.608,1.642,4.608s0.861-2.568,1.712-4.542l9.742-23.168c0.266-0.592,0.725-0.791,1.514-0.791
		h5.46c1.188,0,1.582,0.526,1.582,1.646V43.638z"/>
	<path fill="#9AB6C0" d="M180.813,45.285c-1.185,0-1.575-0.529-1.575-1.712V2.237c0-1.185,0.391-1.71,1.575-1.71h12.047
		c11.915,0,15.927,4.41,15.927,9.938v3.883c0,3.226-1.513,5.793-4.938,7.372c4.478,1.58,6.977,4.344,6.977,7.964v5.2
		c0,5.528-4.015,10.401-15.927,10.401H180.813z M188.117,7.635v11.453h4.938c4.21,0,6.914-1.58,6.914-4.938v-2.304
		c0-3.291-2.704-4.212-7.109-4.212H188.117z M188.117,25.8v12.375h6.781c4.412,0,7.179-1.581,7.179-4.871v-2.961
		c0-2.831-2.767-4.543-7.179-4.543H188.117z"/>
	<path fill="#9AB6C0" d="M223.414,43.573c0,1.183-0.396,1.712-1.575,1.712h-5.729c-1.185,0-1.582-0.529-1.582-1.712V2.237
		c0-1.185,0.397-1.71,1.582-1.71h5.729c1.179,0,1.575,0.526,1.575,1.71V43.573z"/>
	<path fill="#9AB6C0" d="M246.658,0.526c1.186,0,1.776,0.526,2.111,1.646l12.239,41.466c0.327,1.053-0.068,1.646-1.186,1.646H253.9
		c-1.123,0-1.583-0.594-1.91-1.646l-2.308-8.031h-12.233l-2.305,8.031c-0.329,1.053-0.795,1.646-1.974,1.646h-5.332
		c-1.191,0-1.581-0.594-1.255-1.646l12.315-41.466c0.321-1.12,0.851-1.646,2.036-1.646H246.658z M245.535,21.259
		c-0.85-2.699-1.839-11.124-1.902-11.979c-0.133,0.855-1.248,9.149-2.042,11.915l-2.236,7.37h8.361L245.535,21.259z"/>
	<path fill="#0D5DA8" d="M22.312,61.508c0-3.226-2.171-4.739-6.384-4.739c-4.277,0-6.449,1.514-6.449,4.739v0.986
		c0,2.305,1.644,3.161,2.695,3.554l11.454,4.082c4.476,1.578,7.767,4.606,7.767,9.475v5.07c0,5.531-3.885,10.727-15.664,10.727
		C4.015,95.402,0,90.207,0,84.676v-4.146c0-1.182,0.459-1.711,1.579-1.711h5.529c1.187,0,1.579,0.529,1.579,1.711v2.961
		c0,3.229,2.503,4.736,6.978,4.736c4.409,0,6.978-1.508,6.978-4.736v-2.104c0-2.699-2.633-3.754-5.595-4.873L6.844,72.699
		c-3.158-1.186-5.988-4.543-5.988-8.492v-3.883c0-5.531,3.421-10.729,14.941-10.729C27.315,49.595,31,54.792,31,60.324v2.698
		c0,1.119-0.46,1.646-1.645,1.646h-5.528c-1.119,0-1.515-0.526-1.515-1.646V61.508z"/>
	<path fill="#0D5DA8" d="M47.915,66.774c0.394,1.052,1.052,3.224,1.119,3.488c0.064-0.265,0.657-2.437,1.184-3.488l6.977-15.008
		c0.394-0.922,0.79-1.645,1.909-1.645h5.66c1.119,0,1.712,0.593,1.186,1.645l-12.441,26v15.467c0,1.121-0.394,1.646-1.581,1.646
		h-5.725c-1.183,0-1.646-0.525-1.646-1.646V78.818L32.05,51.766c-0.459-0.986,0-1.645,1.12-1.645h6.517
		c1.118,0,1.579,0.658,1.974,1.645L47.915,66.774z"/>
	<path fill="#0D5DA8" d="M88.85,61.508c0-3.226-2.171-4.739-6.384-4.739c-4.278,0-6.451,1.514-6.451,4.739v0.986
		c0,2.305,1.646,3.161,2.701,3.554l11.451,4.082c4.475,1.578,7.767,4.606,7.767,9.475v5.07c0,5.531-3.883,10.727-15.665,10.727
		c-11.714,0-15.731-5.195-15.731-10.727v-4.146c0-1.182,0.461-1.711,1.58-1.711h5.529c1.183,0,1.579,0.529,1.579,1.711v2.961
		c0,3.229,2.501,4.736,6.978,4.736c4.409,0,6.975-1.508,6.975-4.736v-2.104c0-2.699-2.632-3.754-5.593-4.873l-10.203-3.815
		c-3.161-1.186-5.99-4.543-5.99-8.492v-3.883c0-5.531,3.424-10.729,14.94-10.729c11.52,0,15.206,5.197,15.206,10.729v2.698
		c0,1.119-0.46,1.646-1.646,1.646h-5.527c-1.121,0-1.516-0.526-1.516-1.646V61.508z"/>
	<path fill="#0D5DA8" d="M129.392,50.122c1.12,0,1.645,0.394,1.645,1.581v4.145c0,1.186-0.524,1.646-1.645,1.646h-9.346v35.672
		c0,1.188-0.394,1.713-1.579,1.713h-5.726c-1.186,0-1.645-0.525-1.645-1.713V57.494h-9.346c-1.187,0-1.647-0.461-1.647-1.646v-4.145
		c0-1.188,0.46-1.581,1.647-1.581H129.392z"/>
	<path fill="#0D5DA8" d="M135.972,94.879c-1.182,0-1.58-0.525-1.58-1.713V51.833c0-1.187,0.398-1.712,1.58-1.712h22.513
		c1.117,0,1.642,0.394,1.642,1.581v4.145c0,1.186-0.524,1.646-1.642,1.646h-15.206v10.662h14.083c1.188,0,1.711,0.394,1.711,1.58
		v3.954c0,1.113-0.522,1.574-1.711,1.574h-14.083v12.242h15.86c1.188,0,1.645,0.396,1.645,1.582v4.145
		c0,1.188-0.456,1.646-1.645,1.646H135.972z"/>
	<path fill="#0D5DA8" d="M204.75,93.232c0,1.121-0.395,1.646-1.585,1.646h-5.454c-1.191,0-1.585-0.525-1.585-1.646v-25.01
		c-0.063,0.198-1.252,4.211-1.904,5.989l-5.008,12.242c-0.456,1.053-1.052,1.646-2.171,1.646h-4.673
		c-1.122,0-1.709-0.658-2.107-1.646l-5.591-13.232c-0.661-1.379-1.45-4.407-1.513-4.868v24.879c0,1.121-0.397,1.646-1.584,1.646
		h-5.197c-1.186,0-1.579-0.525-1.579-1.646V51.766c0-1.119,0.394-1.645,1.579-1.645h5.197c0.859,0,1.187,0.329,1.451,0.921
		l10.073,22.973c0.783,1.777,1.637,4.607,1.637,4.607s0.863-2.568,1.718-4.545l9.733-23.167c0.268-0.592,0.731-0.79,1.523-0.79
		h5.454c1.19,0,1.585,0.525,1.585,1.645V93.232z"/>
	<path fill="#0D5DA8" d="M231.071,61.508c0-3.226-2.167-4.739-6.377-4.739c-4.279,0-6.454,1.514-6.454,4.739v0.986
		c0,2.305,1.645,3.161,2.696,3.554l11.451,4.082c4.476,1.578,7.767,4.606,7.767,9.475v5.07c0,5.531-3.876,10.727-15.662,10.727
		c-11.716,0-15.73-5.195-15.73-10.727v-4.146c0-1.182,0.456-1.711,1.575-1.711h5.534c1.185,0,1.575,0.529,1.575,1.711v2.961
		c0,3.229,2.503,4.736,6.977,4.736c4.411,0,6.978-1.508,6.978-4.736v-2.104c0-2.699-2.635-3.754-5.591-4.873l-10.204-3.815
		c-3.16-1.186-5.99-4.543-5.99-8.492v-3.883c0-5.531,3.419-10.729,14.939-10.729c11.527,0,15.209,5.197,15.209,10.729v2.698
		c0,1.119-0.46,1.646-1.646,1.646h-5.533c-1.115,0-1.514-0.526-1.514-1.646V61.508z"/>
	<path fill="#459459" d="M2.896,144.477c-1.185,0-1.579-0.529-1.579-1.715v-41.334c0-1.184,0.394-1.709,1.579-1.709h12.043
		c11.916,0,15.929,4.41,15.929,9.938v3.883c0,3.225-1.514,5.791-4.937,7.369c4.478,1.582,6.978,4.346,6.978,7.967v5.199
		c0,5.527-4.016,10.402-15.928,10.402H2.896z M10.202,106.826v11.451h4.937c4.213,0,6.911-1.582,6.911-4.934v-2.307
		c0-3.291-2.697-4.211-7.11-4.211H10.202z M10.202,124.99v12.377h6.779c4.408,0,7.174-1.586,7.174-4.871v-2.963
		c0-2.83-2.766-4.543-7.174-4.543H10.202z"/>
	<path fill="#459459" d="M45.213,142.762c0,1.186-0.394,1.715-1.579,1.715h-5.727c-1.184,0-1.579-0.529-1.579-1.715v-41.334
		c0-1.184,0.395-1.709,1.579-1.709h5.727c1.185,0,1.579,0.525,1.579,1.709V142.762z"/>
	<path fill="#459459" d="M49.227,109.918c0-5.531,4.08-10.729,15.994-10.729c11.912,0,15.992,5.197,15.992,10.729v24.352
		c0,5.529-4.08,10.73-15.992,10.73c-11.915,0-15.994-5.201-15.994-10.73V109.918z M72.329,111.496c0-3.291-2.7-4.934-7.108-4.934
		c-4.412,0-7.044,1.643-7.044,4.934v21.195c0,3.293,2.633,4.938,7.044,4.938c4.408,0,7.108-1.645,7.108-4.938V111.496z"/>
	<path fill="#459459" d="M94.109,137.1h14.679c1.119,0,1.645,0.396,1.645,1.578v4.152c0,1.18-0.526,1.646-1.645,1.646H86.606
		c-0.987,0-1.382-0.596-1.382-1.715v-41.334c0-1.184,0.395-1.709,1.581-1.709h5.726c1.185,0,1.579,0.525,1.579,1.709V137.1z"/>
	<path fill="#459459" d="M112.178,109.918c0-5.531,4.082-10.729,15.995-10.729c11.914,0,15.995,5.197,15.995,10.729v24.352
		c0,5.529-4.081,10.73-15.995,10.73c-11.913,0-15.995-5.201-15.995-10.73V109.918z M135.282,111.496
		c0-3.291-2.698-4.934-7.109-4.934c-4.409,0-7.043,1.643-7.043,4.934v21.195c0,3.293,2.635,4.938,7.043,4.938
		c4.411,0,7.109-1.645,7.109-4.938V111.496z"/>
	<path fill="#459459" d="M177.462,120.975c1.124,0,1.645,0.396,1.645,1.582v11.713c0,5.529-3.55,10.73-15.461,10.73
		c-11.915,0-15.47-5.201-15.47-10.73v-24.352c0-5.531,3.555-10.729,15.47-10.729c11.911,0,15.461,5.197,15.461,10.729v2.633
		c0,1.119-0.39,1.646-1.512,1.646h-5.461c-1.182,0-1.646-0.527-1.646-1.646v-1.055c0-3.291-2.303-4.934-6.715-4.934
		c-4.408,0-6.646,1.643-6.646,4.934v21.195c0,3.293,2.237,4.938,6.646,4.938c4.412,0,6.715-1.645,6.715-4.873v-4.408h-6.449
		c-1.186,0-1.711-0.395-1.711-1.58v-4.211c0-1.186,0.525-1.582,1.711-1.582H177.462z"/>
	<path fill="#459459" d="M196.088,116.367c0.398,1.053,1.058,3.227,1.12,3.49c0.069-0.264,0.659-2.438,1.186-3.49l6.979-15.004
		c0.395-0.92,0.785-1.645,1.906-1.645h5.66c1.121,0,1.707,0.588,1.185,1.645l-12.44,25.996v15.471c0,1.117-0.392,1.646-1.576,1.646
		h-5.729c-1.185,0-1.646-0.529-1.646-1.646v-14.418l-12.504-27.049c-0.463-0.99,0-1.645,1.122-1.645h6.513
		c1.113,0,1.576,0.654,1.977,1.645L196.088,116.367z"/>
</g>
</svg>
